<svg xmlns="http://www.w3.org/2000/svg" width="142" height="28" viewBox="0 0 142 28"><g><g><path fill="#999" d="M11.003 1.59c1.34-.516 2.864-.74 4.427-.788.105-.011.213-.027.317-.038 4.985-.498 9.761 1.085 13.83 3.145 2.335 1.183 4.521 2.504 6.694 3.84 7.64 4.237 16.403 9.17 26.055 8.468 5.655-.41 11.146-4.152 7.867-8.593-2.24-3.033-8.625-3.692-10.608-.167-.95 1.69.623 3.167 2.451 3.848 3.956 1.544 5.397-3.434 2.159-3.354-1.615.038-2.446 1.338-1.129 2.23-3.234-1.539 1.315-4.173 3.715-1.754 2.362 2.38-1.615 4.19-4.49 3.652-3.41-.635-5.173-3.055-3.764-5.561 1.645-2.923 6.829-2.453 9.757-1.305 3.087 1.212 4.824 3.852 4.293 6.457-.729 3.57-6.747 5.034-10.677 5.32-2.99.216-5.95-.147-8.842-.879 5.733 2.054 11.832 3.536 18.07 4.168 6.908.696 16.047.396 20.634-4.253 2.198-2.228 3.42-4.12 3.678-7.01.11-1.237-.185-2.367-.852-3.489-.663-1.115-2.419-4.222 1.084-3.786 1.136.14 1.994 1.214 2.512 1.905 4.977 6.627-4.167 14.179-11.965 16.217-10.33 2.7-22.19.186-31.848-2.936-5.124-1.656-10.093-3.779-14.62-6.262-.772-.423-1.53-.87-2.282-1.33 12.578 9.364 30.487 18.053 48.476 17.483 8.357-.267 17.809-3.6 20.97-9.89 1.356-2.7 1.393-6.208.396-8.958-.616-1.699-1.632-3.078-2.713-4.598-1.901-2.666 2.036-2.831 3.802-1.035 1.665 1.69 2.623 3.92 2.95 6.004.573 3.657-.868 9.125-4.706 11.668 2.933-1.945 5.497-4.211 7.956-6.652 3.56-3.536 6.447-7.21 12.278-8.549 7.917-1.818 18.122 3.256 13.746 9.983-3.3 5.072-13.64 3.663-15.67-1.432-.931-2.333 2.625-4.533 5.418-4.1 3.932.615 4.777 3.983.839 4.89 3.972-1.05-.197-5.85-3.8-3.26-1.372.987-1.283 2.36-.531 3.55 2.05 3.25 7.862 3.595 11.042 1.353 1.808-1.273 2.466-3.27 2.341-5.087-.238-3.483-4.948-5.21-8.886-5.52-8.162-.64-12.626 5.865-16.913 10.048-3.924 3.83-8.42 7.01-14.14 9.156a.687.687 0 0 1-.187.033C90.4 29 77.662 27.788 67.363 24.948c-13.553-3.74-24.634-10.984-35.028-18.38C27.241 2.943 19.45 0 12.43 1.992c-3.332.948-4.176 3.678-3.232 6.057 1.026 2.588 4.932 3.784 8.15 3.447 1.566-.16 2.861-.73 3.218-1.999.222-.785-.188-2.576-1.532-2.768 2.808.4 3.189 3.29 1.215 4.538-6.34 4.01-17.018-2.656-11.947-7.927.03-.033.065-.06.098-.091C5.7 4.542 3.537 6.35 2.588 8.533c-.93 2.135-.21 4.352 1.327 6.22 1.95 2.368 5.663 3.887 9.22 4.185 3.089.259 8.154-1.076 9.117-3.67-.937 2.526-3.378 4.24-6.812 4.648C6.497 20.98-1 15.151 1.167 8.24c1.082-3.453 5.42-5.552 9.836-6.65z"/></g></g></svg>